<svg width="454" height="230" viewBox="0 0 454 230" fill="none" xmlns="http://www.w3.org/2000/svg">
<ellipse cx="176" cy="66.5" rx="12" ry="13.5" fill="#DC7F7F"/>
<path d="M183.043 3.5721C184.433 4.4821 185.823 5.39208 187.213 6.30208C190.313 6.72208 193.403 6.7121 196.503 6.2321C208.983 4.2921 225.393 11.5721 228.613 28.2621C230.023 35.5721 229.723 42.8821 229.663 50.2121C229.643 52.3121 228.463 53.5321 226.533 54.3921C219.423 57.5721 216.393 63.4021 217.583 71.2921C217.753 72.3821 218.133 73.4921 217.403 74.5421C214.123 75.8021 213.113 73.9221 212.733 71.1821C213.023 65.9421 212.473 60.8021 211.073 55.7121C209.843 51.2321 207.423 47.8921 203.033 46.0921C196.573 43.4421 190.323 40.4421 184.573 36.4121C182.323 34.8321 180.503 32.7421 178.113 31.3821C172.823 31.5921 165.833 38.6621 166.423 44.9521C166.833 49.3721 168.333 53.3321 170.133 57.2721C170.593 59.3221 171.583 61.3321 170.663 63.4921C167.793 63.7421 166.353 62.4821 165.003 58.5621C162.453 54.3221 160.703 49.7321 161.183 44.7921C161.973 36.5321 160.133 28.8121 157.383 21.1821C157.473 20.4421 157.473 19.7021 157.473 18.9621C157.233 9.89208 162.593 2.31211 170.213 0.922107C173.973 0.252107 177.453 1.11209 180.743 2.90209C181.503 3.18209 182.113 3.9121 183.043 3.5721Z" fill="#333333"/>
<path d="M170.183 63.6142C169.943 61.4242 169.703 59.2342 169.473 57.0442C168.223 49.7242 169.503 42.9142 173.583 36.6742C175.273 35.7142 176.703 36.5742 178.103 37.3742C184.273 40.9242 190.703 44.0542 197.683 45.3542C208.233 47.3142 211.363 54.8642 212.953 63.9242C213.333 66.1142 213.153 68.3542 213.613 70.5442C213.623 72.8642 213.813 75.0242 217.103 74.3042C219.643 75.1942 220.863 76.9842 220.813 79.6642C215.573 86.0642 208.233 87.7342 200.543 88.5542C199.093 88.7042 198.013 87.6642 196.983 86.7142C194.683 84.5842 191.953 84.5842 189.273 85.6242C186.773 86.5942 186.603 88.9742 188.813 90.5242C190.633 91.8142 192.883 92.6442 194.783 91.3342C197.853 89.2242 201.303 88.9942 204.723 88.5142C209.253 87.8742 213.433 86.3942 217.273 83.9042C218.303 83.2442 219.323 82.3542 220.673 83.2542C221.173 84.0442 220.943 84.7842 220.533 85.5242C220.213 87.5342 220.843 89.6642 219.803 91.5942C218.323 90.3742 218.993 88.6142 218.743 87.3842C213.283 95.1142 206.323 100.374 196.133 99.9442C194.133 99.8642 192.133 99.6342 190.513 98.2442C183.333 93.8842 178.183 87.7442 174.693 80.1642C171.163 75.2042 169.363 69.7642 170.183 63.6142Z" fill="#FFDFAF"/>
<path d="M235.302 13.0038C236.902 19.4338 242.312 22.5738 246.922 26.4038C249.672 30.8738 251.41 36.33 250.5 41.5C250.02 42.87 249.162 43.6838 248.962 45.1038C245.952 50.6038 242.952 56.0938 239.942 61.5938C238.332 61.6938 238.022 60.2738 237.282 59.3538C236.502 58.3938 236.082 57.0738 234.932 56.5038C231.032 54.6038 230.582 51.2838 230.662 47.4238C230.812 39.6138 231.062 31.8138 228.362 24.2038C225.482 16.0838 220.672 10.1438 212.272 7.3538C210.802 6.8638 208.622 6.93378 208.412 4.55378C215.292 1.09378 228.442 2.4638 233.012 10.2938C233.812 11.1638 234.002 12.5638 235.302 13.0038Z" fill="#333333"/>
<path d="M219.723 92.2734C219.793 96.0434 219.923 99.8035 220.683 103.513C223.893 108.633 222.453 115.383 217.393 118.983C211.113 123.453 199.393 123.553 192.823 119.483C187.593 116.243 185.303 109.733 188.853 104.023C189.123 103.583 189.393 103.133 189.663 102.693C199.363 105.883 207.493 103.063 214.713 96.3535C216.263 94.8935 217.133 92.4934 219.723 92.2734Z" fill="#FFDFAF"/>
<path d="M208.613 4.78318C209.023 5.01318 209.403 5.35318 209.833 5.47318C224.233 9.55318 230.253 19.1332 231.643 36.1032C232.043 40.9232 231.683 45.8032 231.673 50.6532C231.673 51.7332 231.193 53.0832 232.513 53.6432C236.193 55.2132 237.893 58.5432 239.933 61.5932C239.753 63.6432 239.693 65.7232 239.373 67.7532C238.223 74.9332 234.403 78.8532 227.203 80.3732C226.013 81.0832 224.773 81.0932 223.513 80.6132C222.513 80.0732 221.373 79.9332 220.333 79.4932C220.303 77.1132 217.973 76.1632 217.093 74.3032C215.423 68.6332 216.063 63.3032 219.373 58.3332C221.023 55.8532 223.143 53.9532 226.073 53.3532C227.873 52.9832 228.643 52.1932 228.673 50.3932C228.793 42.5732 229.193 34.7732 227.233 27.0632C223.693 13.1432 209.993 4.56318 195.823 7.47318C192.903 8.07318 189.893 8.07317 187.203 6.30317C193.083 3.87317 199.243 3.71318 205.463 4.00318C206.223 4.62318 207.063 3.99318 207.853 4.16318C208.193 4.28318 208.443 4.49318 208.613 4.78318Z" fill="#333333"/>
<path fill-rule="evenodd" clip-rule="evenodd" d="M216.549 12.6011C208.321 6.71763 197.276 6.91513 189.5 8.99935L188.482 6.99935L186.5 6C194.891 3.75089 209.296 2.49751 218.876 9.34734C228.619 16.3138 234.734 30.1725 231.483 54.7614L227.517 54.2371C230.666 30.426 224.615 18.3681 216.549 12.6011Z" fill="#DC7F7F"/>
<path d="M66.2231 167.102C71.6531 167.162 76.5731 172.062 76.5131 177.342C76.4631 181.842 73.5631 184.452 68.7231 184.342C63.7231 184.232 58.3631 178.612 58.5931 173.722C58.7831 169.862 62.0231 167.052 66.2231 167.102Z" fill="#B8D0CE"/>
<path d="M219.722 92.2726C213.462 100.033 206.012 105.563 195.402 104.953C193.302 104.833 190.882 105.163 189.652 102.683C189.942 101.203 190.222 99.7226 190.512 98.2426C197.762 99.7826 204.602 99.1726 210.712 94.5226C213.002 92.7726 215.052 90.7926 216.752 88.4626C217.462 87.4826 218.022 86.3427 219.812 85.9727C219.812 87.9527 219.812 89.7727 219.812 91.5927C219.822 91.8327 219.792 92.0526 219.722 92.2726Z" fill="#ECCFA4"/>
<path d="M223.592 79.5625C224.642 80.5525 225.992 80.1525 227.212 80.3725C225.502 82.7525 223.042 84.1625 220.542 85.5225C220.472 84.6825 220.402 83.8425 220.322 83.0025C220.472 80.9725 222.112 80.3425 223.592 79.5625Z" fill="#1B3552"/>
<path d="M373.473 168.816C369.423 162.806 364.753 157.326 359.363 152.466C356.643 150.016 355.313 147.266 357.173 143.526C358.693 140.476 357.793 137.696 355.223 135.496C354.473 134.846 353.673 134.236 352.813 133.736C347.353 130.516 345.343 125.846 347.303 119.826C348.493 116.176 347.423 113.276 345.303 110.456C344.253 109.066 343.243 107.646 342.233 106.226C338.593 101.066 338.413 98.0058 342.183 93.0558C344.693 89.7558 344.593 86.7358 342.513 83.4558C340.923 80.9358 339.143 78.5058 338.103 75.6758C336.213 70.5458 337.323 67.2558 342.123 64.8458C345.173 63.3158 346.443 61.1458 346.533 57.7658C346.623 54.5458 347.043 51.1958 350.893 49.9258C351.073 49.9858 351.253 50.0458 351.433 50.0958C353.003 51.2958 353.633 53.1058 354.373 54.7958C358.613 64.5158 362.353 74.4258 365.133 84.6658C365.453 85.8358 366.203 87.2458 364.993 88.1458C363.773 89.0658 362.633 87.9458 361.633 87.2658C358.173 84.9258 354.693 82.6158 352.503 81.6058C355.863 82.8958 359.833 86.6158 364.593 89.0058C366.183 89.8058 366.853 91.2758 367.363 92.8358C369.013 97.8158 369.863 102.996 371.083 108.076C371.343 109.176 371.393 110.396 370.453 111.226C369.363 112.196 368.343 111.326 367.393 110.806C362.903 108.356 358.323 106.096 353.413 104.586C359.043 106.386 364.213 109.156 369.393 111.916C371.453 113.016 372.533 114.456 372.943 116.776C373.903 122.166 374.843 127.566 375.663 132.976C375.833 134.086 375.903 135.206 375.743 136.326C375.463 138.396 374.333 138.986 372.703 137.696C371.373 136.636 369.883 135.856 368.553 134.796C374.343 137.706 377.903 141.946 377.353 148.816C377.233 150.336 377.093 151.866 375.973 152.986C372.493 156.466 373.183 160.426 374.523 164.476C375.013 165.976 376.133 167.386 375.013 169.056C374.453 169.346 373.923 169.336 373.473 168.816Z" fill="#D3E8EC"/>
<path d="M423.592 111.315C423.632 112.325 423.122 113.045 422.342 113.615C417.302 116.105 411.662 116.835 406.512 119.085C403.102 120.575 400.542 122.395 399.302 125.985C398.542 128.185 397.172 130.145 396.122 133.275C400.932 131.525 405.242 130.665 409.592 130.135C412.502 129.785 415.502 129.035 418.292 130.735C418.062 131.645 417.802 132.535 417.022 133.155C410.832 132.825 404.842 133.915 398.922 135.615C396.072 136.435 394.162 138.005 393.012 140.805C391.632 144.145 390.402 147.515 389.242 151.515C396.102 148.315 402.752 146.065 409.992 146.495C410.082 147.105 410.032 147.665 409.422 148.005C408.732 149.195 407.602 149.595 406.302 149.705C401.162 150.125 396.522 152.275 391.722 153.885C388.752 154.885 387.122 156.855 386.372 159.935C385.632 163.015 385.552 166.355 383.412 168.985C383.052 169.195 382.692 169.205 382.312 169.045C380.842 167.005 381.632 164.815 382.422 162.965C385.792 155.115 383.942 148.165 379.442 141.415C378.412 139.865 375.932 137.455 378.432 136.065C380.432 134.955 381.272 138.155 382.202 139.775C383.742 142.455 385.502 145.035 386.322 147.935C393.492 137.595 391.082 128.015 383.962 118.735C383.082 119.545 383.242 120.665 383.492 121.475C385.072 126.565 381.752 129.975 379.422 133.705C378.832 134.645 377.902 135.535 376.652 135.295C375.192 135.015 375.402 133.665 375.232 132.585C374.432 127.425 373.632 122.265 372.482 117.165C371.842 114.365 371.762 111.685 373.622 109.035C375.362 106.555 376.702 103.785 378.462 101.295C376.622 103.795 375.012 106.435 373.572 109.185C373.242 109.815 373.082 110.725 372.072 110.485C371.402 110.325 371.152 109.665 371.012 109.065C369.592 102.625 367.042 96.2947 366.732 89.7847C366.432 83.5247 368.482 77.2647 370.222 71.1647C371.032 68.3147 371.792 65.4147 372.582 63.7347C370.032 70.4047 368.172 78.4247 366.892 86.8847C364.932 86.1647 364.832 84.7147 364.492 83.5047C361.632 73.2847 357.772 63.4247 353.562 53.7047C352.982 52.3647 352.542 50.8547 351.102 50.0547L350.912 49.9047C354.592 48.1147 357.862 49.0647 360.242 52.0147C363.842 56.4847 367.922 58.9947 373.972 58.4047C377.352 58.0747 379.752 60.4047 380.632 63.8347C380.972 65.1547 381.492 66.5347 381.392 67.8447C380.832 74.7747 383.612 80.0347 388.802 84.4747C391.602 86.8747 390.822 90.4447 390.422 93.6347C389.992 97.0947 388.842 100.395 387.562 103.635C386.662 105.915 386.662 107.985 388.432 109.855C384.382 113.805 386.962 117.185 389.242 120.725C391.062 123.545 392.322 126.685 393.532 130.595C396.022 125.155 399.052 120.705 398.762 114.915C398.492 109.575 398.932 104.195 397.782 98.9047C397.552 97.8247 397.252 96.6847 398.142 95.7047C399.242 95.5847 400.352 95.3747 401.282 96.2447C400.662 100.505 402.192 104.625 402.122 108.845C402.102 110.205 402.222 111.575 401.922 113.325C405.072 106.635 408.832 100.735 412.892 95.0147C413.762 93.7947 414.552 92.5147 416.092 92.0147C416.872 92.1247 417.402 92.5947 417.792 93.2447C413.062 100.945 407.382 108.075 404.082 116.645C408.902 114.425 414.112 113.195 419.252 111.725C420.652 111.315 422.072 110.645 423.592 111.315Z" fill="#D3E8EC"/>
<path d="M393.553 217.555C385.173 217.545 376.803 217.535 368.423 217.525C366.733 207.795 365.043 198.065 363.373 188.335C363.163 187.125 363.093 185.895 362.953 184.675C364.233 183.355 365.913 183.495 367.513 183.485C376.493 183.435 385.473 183.435 394.453 183.485C396.053 183.495 397.733 183.375 399.013 184.695C397.393 194.435 395.763 204.165 394.143 213.905C393.943 215.115 393.743 216.335 393.553 217.555Z" fill="#E3C6C6"/>
<path d="M335.933 217.614C331.373 217.634 326.803 217.624 322.243 217.674C320.973 217.684 319.793 217.544 318.723 216.814C317.563 215.414 317.103 213.834 317.113 211.984C317.153 201.894 317.183 191.794 317.063 181.704C317.033 179.304 317.703 178.404 320.213 178.474C326.443 178.654 332.683 178.584 338.923 178.624C339.993 179.834 340.083 181.334 340.093 182.834C340.113 191.534 340.183 200.244 340.063 208.944C339.993 212.404 339.273 215.664 335.933 217.614Z" fill="#C9D8EE"/>
<path d="M382.423 168.846C382.673 168.846 382.923 168.846 383.173 168.846C386.413 167.296 389.653 167.276 392.893 168.846C396.123 168.886 399.363 169.016 402.593 168.936C404.393 168.896 405.083 169.556 404.903 171.316C404.813 172.176 404.893 173.056 404.893 173.926C404.893 179.446 404.893 179.446 399.803 180.306C387.243 180.746 374.683 181.556 362.123 180.236C360.573 179.526 357.813 180.826 357.403 179.066C356.733 176.126 357.013 172.926 357.223 169.856C357.303 168.596 358.813 169.006 359.723 168.986C364.303 168.896 368.883 168.876 373.473 168.826C373.953 168.836 374.443 168.856 374.923 168.866C377.423 167.406 379.923 167.406 382.423 168.846Z" fill="#E3C6C6"/>
<path d="M409.992 146.495C406.982 147.145 403.992 147.955 400.962 148.395C397.312 148.925 394.042 150.315 390.832 152.005C390.052 152.415 389.082 152.885 388.442 152.135C388.112 151.755 388.342 150.725 388.582 150.075C390.022 146.115 391.532 142.175 393.022 138.225C393.552 136.825 394.742 136.125 396.032 135.605C401.952 133.175 408.272 132.605 414.532 131.795C415.542 131.665 416.442 132.265 417.032 133.165C416.542 133.715 416.142 134.385 415.552 134.805C411.522 137.685 409.422 141.455 409.992 146.495Z" fill="#AFD3DA"/>
<path d="M398.133 95.7148C400.033 102.995 399.873 110.445 399.603 117.855C399.403 123.355 395.453 127.485 393.623 132.575C391.133 126.285 388.533 120.245 384.383 114.995C383.523 113.905 384.663 113.175 385.343 112.525C386.323 111.585 387.383 110.745 388.413 109.865C391.163 108.235 391.423 105.325 392.303 102.655C393.313 99.6448 393.603 95.8448 398.133 95.7148Z" fill="#AFD3DA"/>
<path d="M418.304 130.735C414.324 130.755 410.354 130.695 406.424 131.535C402.674 132.335 398.934 133.145 394.934 134.815C395.194 130.615 397.954 127.895 398.854 124.525C399.944 120.445 403.324 119.375 406.674 118.035C411.754 115.995 416.854 114.155 422.344 113.625C422.024 114.155 421.794 114.785 421.354 115.185C417.554 118.615 415.234 122.305 418.384 127.485C418.864 128.255 418.354 129.635 418.304 130.735Z" fill="#AFD3DA"/>
<path d="M392.892 168.844C389.652 168.844 386.412 168.844 383.172 168.844C383.912 165.974 384.952 163.144 385.312 160.224C385.852 155.874 388.492 153.864 392.272 152.494C397.862 150.464 403.552 148.924 409.422 147.994C409.222 150.844 407.052 151.844 404.842 152.774C401.212 154.294 398.672 156.364 399.692 160.904C400.232 163.314 398.552 164.794 396.782 166.074C395.492 167.004 393.862 167.464 392.892 168.844Z" fill="#AFD3DA"/>
<path d="M423.593 111.314C416.623 113.614 409.423 115.124 401.803 118.534C405.623 111.454 408.303 104.974 412.693 99.4641C414.363 97.3741 415.043 94.4541 417.783 93.2441C419.733 94.5241 419.353 96.5141 419.183 98.3141C418.923 101.114 419.453 103.344 421.963 105.094C424.083 106.564 424.823 108.774 423.593 111.314Z" fill="#AFD3DA"/>
<path d="M335.934 217.614C338.664 213.944 339.074 209.784 338.984 205.344C338.794 196.444 338.924 187.534 338.924 178.634C345.024 178.284 345.024 178.284 345.034 184.114C345.034 185.224 345.064 186.334 345.074 187.444C346.074 188.904 346.104 190.564 346.034 192.234C346.174 197.154 346.114 202.064 346.084 206.984C345.934 208.844 346.364 210.824 344.984 212.434C345.184 214.144 344.274 215.454 343.384 216.764C341.034 218.314 338.434 217.544 335.934 217.614Z" fill="#AEBED6"/>
<path d="M362.123 180.224C362.663 179.974 363.253 179.434 363.753 179.514C370.013 180.494 376.293 179.194 382.593 179.904C386.963 180.394 391.473 179.174 395.943 179.474C397.263 179.564 398.723 179.054 399.793 180.304C399.663 181.794 399.913 183.354 399.003 184.704C386.983 184.694 374.963 184.694 362.943 184.684C362.173 183.284 362.183 181.744 362.123 180.224Z" fill="#DBBABA"/>
<path d="M344.973 212.435C344.973 210.645 344.983 208.845 344.983 207.055C345.903 206.585 346.933 206.825 347.893 206.635C351.433 205.905 353.753 203.085 353.713 199.555C353.673 195.985 351.713 193.845 347.843 193.155C346.873 192.985 345.853 193.035 345.053 192.325C345.063 190.695 345.063 189.075 345.073 187.445C354.703 188.155 359.853 193.105 359.183 200.985C358.583 207.845 353.903 211.615 344.973 212.435Z" fill="#C9D8EE"/>
<path d="M416.083 92.0157C410.812 99.4157 405.883 107.026 401.523 115.136C401.323 109.276 400.993 103.566 399.823 97.9457C399.583 96.7757 400.333 96.4257 401.273 96.2457C404.143 96.7057 406.493 95.9257 408.693 93.8957C410.693 92.0657 413.103 90.5557 416.083 92.0157Z" fill="#AFD3DA"/>
<path d="M0 223.5C0 219.91 2.91015 217 6.5 217H449.667C452.06 217 454 218.94 454 221.333C454 226.12 450.12 230 445.333 230H6.49999C2.91014 230 0 227.09 0 223.5Z" fill="#D9E6EF"/>
<path d="M382.424 168.843C379.924 168.843 377.424 168.853 374.924 168.853C374.454 165.433 372.114 162.523 372.424 158.853C372.594 156.843 372.714 155.033 374.254 153.433C377.804 149.743 376.934 141.833 372.784 138.613C370.634 136.953 368.494 135.293 365.764 133.173C369.744 133.703 371.474 137.073 374.884 137.843C375.004 131.373 373.024 125.413 372.584 119.303C372.214 114.273 368.994 112.033 365.144 110.193C360.684 108.063 356.114 106.163 350.764 103.793C356.194 104.263 360.004 106.623 364.014 108.433C365.984 109.323 368.284 111.843 369.904 110.563C371.624 109.203 369.514 106.463 369.204 104.303C369.064 103.323 368.834 102.343 368.774 101.363C368.204 92.503 362.604 87.563 355.294 83.863C352.894 82.653 350.624 81.203 348.434 79.613C354.504 81.013 359.054 85.443 365.214 88.443C361.524 74.643 356.954 62.113 351.094 50.043C353.304 50.073 353.514 52.033 354.084 53.403C358.344 63.613 362.554 73.843 365.354 84.573C365.474 85.023 365.794 85.433 366.304 86.383C368.164 76.793 369.844 67.673 374.454 59.463C371.504 67.653 369.414 76.023 367.844 84.593C366.164 93.733 370.964 101.453 371.924 110.063C374.644 105.873 376.904 101.643 380.534 97.963C380.744 100.483 378.984 101.593 377.914 102.933C372.734 109.363 371.714 116.363 374.234 124.153C375.104 126.823 375.234 129.733 375.644 132.553C375.774 133.423 375.634 134.473 376.644 134.753C377.424 134.973 378.114 134.193 378.404 133.583C380.144 129.863 384.414 127.063 382.484 121.973C382.034 120.773 382.414 119.253 382.444 117.883C382.454 117.233 382.664 116.543 383.304 116.353C384.014 116.143 384.344 116.783 384.674 117.333C387.354 121.693 389.764 126.193 391.324 131.073C392.274 134.053 392.544 136.913 390.864 140.013C389.124 143.223 388.264 146.913 386.634 151.473C384.544 145.323 381.724 140.743 378.614 136.323C378.714 139.863 381.104 142.373 382.634 145.193C385.284 150.063 386.124 154.873 384.244 160.173C383.254 162.943 382.254 165.783 382.424 168.843Z" fill="#AFD3DA"/>
<path d="M319.464 191.775C319.464 188.925 319.444 186.075 319.474 183.225C319.484 182.325 319.734 181.395 320.784 181.255C321.884 181.105 322.204 181.975 322.414 182.875C323.874 189.135 323.074 195.395 322.384 201.655C322.314 202.265 321.964 202.985 321.244 202.855C320.144 202.655 319.544 201.745 319.514 200.705C319.434 197.735 319.484 194.755 319.484 191.785C319.484 191.775 319.474 191.775 319.464 191.775Z" fill="white"/>
<path fill-rule="evenodd" clip-rule="evenodd" d="M208.342 121.283C194.955 123.565 186.628 116.413 188.729 104.615C188.778 104.339 188.532 104.101 188.278 104.22C188.234 104.241 188.195 104.271 188.163 104.308C188.134 104.341 188.105 104.373 188.077 104.406C187.615 104.937 186.653 105.006 185.95 105.018C185.659 105.022 185.336 105.077 184.992 105.186C177.093 107.684 169.903 111.638 163.011 116.211C162.626 116.467 162.273 116.765 161.963 117.104C161.964 117.04 161.964 116.976 161.963 116.912C153.573 121.612 148.493 129.322 143.593 137.172C139.377 143.918 135.652 150.931 131.926 157.944C129.747 162.045 127.569 166.145 125.293 170.192C123.873 171.652 124.193 173.422 124.513 175.122C126.213 184.292 128.023 193.442 129.873 202.582C130.883 207.562 132.553 208.452 137.553 207.082C141.593 203.592 145.463 199.912 148.803 195.772C149.374 195.06 150.019 194.391 150.666 193.721C151.997 192.341 153.336 190.954 154.059 189.158C154.08 189.727 154.067 190.299 154.053 190.87C154.03 191.831 154.007 192.79 154.153 193.733C154.393 195.283 154.447 196.86 154.5 198.437C154.582 200.844 154.665 203.251 155.409 205.562C155.748 206.615 156.511 207.53 157.591 207.768C158.379 207.942 159.199 207.953 160.013 207.953C161.483 207.953 162.953 207.964 164.422 207.976C168.573 208.009 172.723 208.042 176.873 207.813C178.491 207.682 179.934 207.039 181.378 206.395C182.209 206.024 183.041 205.653 183.906 205.38C184.241 205.274 184.573 205.158 184.893 205.014C185.034 204.951 185.176 204.889 185.318 204.827C186.13 205.357 187.089 205.572 188.042 205.579C193.162 205.619 198.062 206.769 202.942 208.119L203.055 208.15C204.313 208.498 205.698 208.881 206.762 207.721C206.821 208.251 207.072 208.693 207.59 208.724C207.633 208.727 207.678 208.726 207.723 208.723C212.383 208.363 214.623 210.843 215.323 215.143C215.533 216.373 216.183 217.183 217.423 217.453C218.153 217.623 218.893 217.703 219.643 217.703C245.463 217.773 271.283 217.753 297.103 217.703L297.203 217.703C298.367 217.703 299.567 217.704 300.567 217.061C300.841 216.885 301.098 216.683 301.355 216.481L301.356 216.481C301.58 216.304 301.805 216.128 302.04 215.969C306.113 213.219 307.842 209.331 307.503 204.263C307.223 200.093 306.153 196.133 304.393 192.433C295.273 173.303 284.753 154.923 273.833 136.783C265.763 123.373 254.993 113.053 239.223 109.023C237.511 108.582 235.875 107.89 234.237 107.198L234.237 107.198C232.943 106.651 231.648 106.103 230.314 105.678C229.436 105.399 228.571 105.438 227.842 105.729C227.362 105.921 226.705 105.713 226.566 105.215C226.516 105.033 226.384 104.877 226.211 104.801C225.808 104.622 225.402 104.456 224.992 104.306C222.864 103.529 221.235 105.612 221.387 107.872C221.918 115.756 217.351 118.706 211.982 120.413C210.792 120.793 209.572 121.073 208.342 121.283ZM253.992 175.469C254.103 174.928 254.208 174.381 254.211 173.844C256.863 177.205 259.3 180.728 261.763 184.289L261.763 184.289L261.763 184.29L262.169 184.876C264.826 188.716 262.449 194.295 257.863 195.176C257.071 195.328 256.281 195.482 255.494 195.636L255.49 195.637L255.488 195.637C253.488 196.028 251.501 196.416 249.508 196.762C250.226 195.918 250.582 194.915 250.722 193.819C251.562 187.659 252.762 181.559 253.992 175.469Z" fill="url(#paint0_linear)"/>
<path opacity="0.1" d="M250.116 196.473C249.641 197.384 248.661 197.864 247.664 198.113C236.209 200.971 224.422 202.102 212.882 204.553C210.832 204.988 208.502 204.954 207.401 206.984C207.04 207.65 206.815 208.454 206.154 208.824C205.165 209.377 204.003 209.025 202.942 208.733C198.062 207.383 193.162 206.233 188.042 206.193C185.841 206.177 185.957 203.532 187.977 202.657C191.485 201.139 195.308 200.473 198.962 199.363C207.952 196.643 217.102 194.453 225.892 191.043C237.312 186.603 244.402 178.493 247.472 166.733C247.722 165.783 248.152 164.883 248.522 163.963C248.652 163.616 249.246 163.89 249.437 164.208C250.674 166.265 252.5 167.998 253.232 170.318C253.667 171.694 254.264 173.164 254.208 174.606C254.189 175.095 254.093 175.592 253.992 176.083C252.762 182.173 251.562 188.273 250.722 194.433C250.629 195.16 250.441 195.847 250.116 196.473Z" fill="black"/>
<path d="M188.842 104.022C186.352 116.172 194.732 123.602 208.342 121.282C209.572 121.072 210.792 120.792 211.982 120.412C218.242 118.422 223.412 114.742 220.682 103.522C222.742 103.472 224.642 104.082 226.482 104.922C228.562 111.902 225.292 117.302 220.412 121.322C212.192 128.092 202.692 128.382 193.002 124.552C185.952 121.762 181.352 111.942 188.212 104.252C188.412 104.152 188.622 104.072 188.842 104.022Z" fill="black" fill-opacity="0.1"/>
<path d="M213.613 70.543C212.083 64.713 211.453 58.643 208.493 53.203C207.353 51.103 205.923 49.213 203.843 48.583C193.613 45.483 183.633 41.813 174.203 36.753C174.283 33.613 175.963 31.583 178.713 30.293C184.513 35.853 191.043 40.713 198.633 42.993C209.653 46.3029 213.013 54.093 213.623 64.223C213.753 66.333 213.623 68.443 213.613 70.543Z" fill="#DDBC8A"/>
<path d="M178.714 30.292C177.034 32.322 175.344 34.352 174.204 36.752C170.514 43.022 170.114 50.062 169.474 57.042C163.514 47.492 163.374 36.982 174.844 31.022C176.164 30.332 177.324 30.032 178.714 30.292Z" fill="#0E2133"/>
<path d="M202.561 17.0302C203.69 17.4582 204.818 17.8863 205.954 18.3416C198.256 23.4431 190.274 27.7147 179.373 28.7364C188.164 24.3063 195.366 20.6819 202.561 17.0302Z" fill="white" fill-opacity="0.1"/>
<path d="M225.24 78.07C224.15 79.22 221.412 81.8575 220.332 82.9975C214.252 87.4575 207.462 89.8475 199.912 89.9775C198.812 89.9975 198.102 90.4475 197.342 91.1775C194.542 93.8375 191.472 93.3475 188.422 91.6575C186.812 90.7675 185.622 89.5275 185.902 87.4875C186.162 85.5875 187.692 84.6075 189.212 84.3475C192.482 83.7775 196.002 83.0575 198.262 86.6475C199.122 88.0175 200.402 87.7475 201.592 87.6075C208.642 86.7575 217.5 84.3475 222 78C223.09 77.39 224.16 77.91 225.24 78.07Z" fill="#DC7F7F"/>
<path d="M221.953 68.1643C221.553 65.2643 222.433 62.2043 224.523 59.5743C226.323 57.3043 228.323 54.9343 231.633 55.7443C235.163 56.6043 237.073 59.6143 237.513 62.7843C238.103 67.1043 237.223 71.3243 233.923 74.8043C231.663 77.1843 229.243 78.1043 226.293 76.7643C223.373 75.4443 221.443 73.3043 221.943 69.7543C222.003 69.3943 221.953 69.0143 221.953 68.1643Z" fill="#7470B3"/>
<path d="M17.1596 137.863C16.5817 135.938 18.0231 134 20.0329 134H113.228C115.596 134 117.639 135.66 118.123 137.978L134 214H40.0177L17.1596 137.863Z" fill="#3A3939"/>
<path d="M17.7339 139.553C17.3664 138.274 18.3259 137 19.656 137H112.36C113.314 137 114.135 137.673 114.322 138.608L130 217H40L17.7339 139.553Z" fill="#545454"/>
<ellipse opacity="0.1" cx="78.0008" cy="177" rx="8" ry="10" transform="rotate(107.618 78.0008 177)" fill="white"/>
<path d="M128 207H181C185.97 207 190 211.029 190 216L130 217L128 207Z" fill="#3A3939"/>
<path d="M184.524 205C191.213 205.676 197.942 206.08 204.334 208.502C205.066 208.785 206.006 208.482 206.857 208.452C213.081 207.493 215.812 210.046 216 217C199.663 216.96 183.337 216.929 167 216.889C169.761 212.65 174.303 210.5 177.904 207.251C180.032 206.262 182.11 205.101 184.524 205Z" fill="#FFDFAF"/>
<path fill-rule="evenodd" clip-rule="evenodd" d="M74 7.99999C74 3.58171 77.5817 0 82 0H130C134.418 0 138 3.58172 138 8V38.2066C138 42.6249 134.418 46.2066 130 46.2066H123.866C122.362 46.2066 121.137 47.4164 121.119 48.9206C121.093 51.0847 118.691 52.3701 116.876 51.1913L110.442 47.0133C109.631 46.4868 108.686 46.2066 107.719 46.2066H82C77.5817 46.2066 74 42.6249 74 38.2066V7.99999Z" fill="url(#paint1_linear)" fill-opacity="0.6"/>
<mask id="mask0" mask-type="alpha" maskUnits="userSpaceOnUse" x="74" y="10" width="65" height="53">
<path fill-rule="evenodd" clip-rule="evenodd" d="M74.0579 18.5106C74.0259 14.095 77.5775 10.4886 81.993 10.4529L129.935 10.0652C134.379 10.0293 138 13.6214 138 18.0649V49.1058C138 53.0858 134.774 56.3122 130.794 56.3122L126.853 56.3122C123.877 56.3122 121.455 58.7054 121.419 61.6809C121.406 62.6878 120.289 63.2862 119.444 62.7384L113.751 59.0476C110.997 57.2622 107.785 56.3122 104.503 56.3122H82.274C77.8784 56.3122 74.3061 52.7657 74.2742 48.3702L74.0579 18.5106Z" fill="#D80666"/>
</mask>
<g mask="url(#mask0)">
<path fill-rule="evenodd" clip-rule="evenodd" d="M135.623 6.57604C130.197 23.0453 111.347 53.9789 66.5085 53.9789C24.2974 53.9789 118.004 72.8897 129.131 75.1061C129.812 75.2417 130.484 75.0068 130.955 74.4969L147.78 56.2948C148.134 55.9118 148.325 55.4347 148.309 54.9133C148.118 48.673 146.681 7.29209 142.192 7.29209C137.337 7.29209 141.049 -9.89324 135.623 6.57604Z" fill="white" fill-opacity="0.16"/>
</g>
<path d="M89 13H124" stroke="white" stroke-width="4" stroke-linecap="round"/>
<path d="M89 23H114" stroke="white" stroke-width="4" stroke-linecap="round"/>
<path d="M89 33H103" stroke="white" stroke-width="4" stroke-linecap="round"/>
<ellipse cx="228" cy="66.5" rx="12" ry="13.5" fill="#DC7F7F"/>
<ellipse cx="229.782" cy="66.9104" rx="8" ry="10.9351" transform="rotate(13.4122 229.782 66.9104)" fill="#BF6464"/>
<defs>
<linearGradient id="paint0_linear" x1="266.645" y1="220.578" x2="176.596" y2="112.154" gradientUnits="userSpaceOnUse">
<stop stop-color="#26CC90"/>
<stop offset="1" stop-color="#39AEB6"/>
</linearGradient>
<linearGradient id="paint1_linear" x1="51.9664" y1="7.0218" x2="63.9172" y2="81.4574" gradientUnits="userSpaceOnUse">
<stop stop-color="#FF665F"/>
<stop offset="1" stop-color="#EB06A6"/>
</linearGradient>
</defs>
</svg>
